<svg xmlns="http://www.w3.org/2000/svg" xmlns:xlink="http://www.w3.org/1999/xlink" width="65" zoomAndPan="magnify" viewBox="0 0 48.75 48.749998" height="65" preserveAspectRatio="xMidYMid meet" version="1.0"><defs><clipPath id="22e414eea0"><path d="M 1.230469 1.269531 L 47.195312 1.269531 L 47.195312 47.234375 L 1.230469 47.234375 Z M 1.230469 1.269531 " clip-rule="nonzero"/></clipPath><clipPath id="a70d4fef63"><path d="M 24.214844 1.269531 C 11.519531 1.269531 1.230469 11.558594 1.230469 24.25 C 1.230469 36.941406 11.519531 47.234375 24.214844 47.234375 C 36.90625 47.234375 47.195312 36.941406 47.195312 24.25 C 47.195312 11.558594 36.90625 1.269531 24.214844 1.269531 Z M 24.214844 1.269531 " clip-rule="nonzero"/></clipPath><clipPath id="20de26d470"><path d="M 17 6.746094 L 31 6.746094 L 31 35 L 17 35 Z M 17 6.746094 " clip-rule="nonzero"/></clipPath><clipPath id="9140cc0aa4"><path d="M 27 15 L 42.074219 15 L 42.074219 35 L 27 35 Z M 27 15 " clip-rule="nonzero"/></clipPath><clipPath id="309dea5289"><path d="M 6.257812 15 L 22 15 L 22 35 L 6.257812 35 Z M 6.257812 15 " clip-rule="nonzero"/></clipPath></defs><g clip-path="url(#22e414eea0)"><g clip-path="url(#a70d4fef63)"><path fill="#000000" d="M 1.230469 1.269531 L 47.195312 1.269531 L 47.195312 47.234375 L 1.230469 47.234375 Z M 1.230469 1.269531 " fill-opacity="1" fill-rule="nonzero"/></g></g><g clip-path="url(#20de26d470)"><path fill="#ffffff" d="M 24.4375 14.207031 L 24.4375 10.613281 C 25.105469 10.472656 25.792969 10.582031 26.511719 10.695312 C 27.007812 10.773438 27.507812 10.851562 28.023438 10.851562 C 28.421875 10.855469 28.8125 10.796875 29.195312 10.679688 L 29.457031 10.597656 L 29.457031 6.882812 L 28.96875 7.035156 C 28.214844 7.273438 27.445312 7.152344 26.628906 7.023438 C 25.765625 6.886719 24.867188 6.746094 23.949219 7.035156 L 23.683594 7.117188 L 23.683594 14.238281 L 17.46875 20.527344 L 17.46875 34.886719 L 21.148438 34.886719 L 21.148438 29.320312 C 21.148438 27.648438 22.464844 26.242188 24.136719 26.199219 C 24.550781 26.191406 24.949219 26.261719 25.332031 26.414062 C 25.714844 26.566406 26.054688 26.785156 26.351562 27.070312 C 26.644531 27.359375 26.871094 27.695312 27.03125 28.074219 C 27.191406 28.453125 27.273438 28.851562 27.273438 29.261719 L 27.273438 34.886719 L 30.957031 34.886719 L 30.957031 20.535156 Z M 24.210938 23.640625 C 23.773438 23.640625 23.347656 23.558594 22.941406 23.390625 C 22.535156 23.222656 22.175781 22.980469 21.863281 22.671875 C 21.554688 22.359375 21.3125 22 21.144531 21.59375 C 20.976562 21.1875 20.890625 20.761719 20.890625 20.324219 C 20.890625 19.882812 20.976562 19.460938 21.144531 19.054688 C 21.3125 18.648438 21.554688 18.289062 21.863281 17.976562 C 22.175781 17.664062 22.535156 17.425781 22.941406 17.257812 C 23.347656 17.089844 23.769531 17.003906 24.210938 17.003906 C 24.652344 17.003906 25.074219 17.089844 25.480469 17.257812 C 25.886719 17.425781 26.246094 17.664062 26.558594 17.976562 C 26.871094 18.289062 27.109375 18.648438 27.277344 19.054688 C 27.445312 19.460938 27.53125 19.882812 27.53125 20.324219 C 27.53125 20.761719 27.445312 21.1875 27.277344 21.59375 C 27.109375 22 26.867188 22.359375 26.558594 22.667969 C 26.246094 22.980469 25.886719 23.21875 25.480469 23.390625 C 25.074219 23.558594 24.652344 23.640625 24.210938 23.640625 Z M 24.210938 23.640625 " fill-opacity="1" fill-rule="nonzero"/></g><path fill="#ffffff" d="M 24.210938 18.003906 C 23.902344 18.003906 23.609375 18.066406 23.324219 18.183594 C 23.039062 18.300781 22.789062 18.46875 22.574219 18.683594 C 22.355469 18.902344 22.1875 19.152344 22.070312 19.4375 C 21.953125 19.71875 21.894531 20.015625 21.894531 20.324219 C 21.894531 20.628906 21.953125 20.925781 22.070312 21.210938 C 22.1875 21.496094 22.355469 21.746094 22.574219 21.960938 C 22.789062 22.179688 23.039062 22.347656 23.324219 22.464844 C 23.609375 22.582031 23.902344 22.640625 24.210938 22.640625 C 24.519531 22.640625 24.816406 22.582031 25.097656 22.464844 C 25.382812 22.347656 25.632812 22.179688 25.851562 21.960938 C 26.066406 21.746094 26.234375 21.496094 26.351562 21.210938 C 26.46875 20.925781 26.527344 20.628906 26.527344 20.324219 C 26.527344 20.015625 26.46875 19.71875 26.351562 19.4375 C 26.234375 19.152344 26.066406 18.902344 25.851562 18.683594 C 25.632812 18.46875 25.382812 18.300781 25.097656 18.183594 C 24.8125 18.066406 24.519531 18.007812 24.210938 18.003906 Z M 25.554688 20.65625 L 24.210938 20.65625 C 24.121094 20.65625 24.039062 20.625 23.976562 20.558594 C 23.910156 20.492188 23.878906 20.414062 23.878906 20.324219 L 23.878906 18.980469 C 23.878906 18.890625 23.910156 18.8125 23.976562 18.746094 C 24.039062 18.679688 24.121094 18.648438 24.210938 18.648438 C 24.304688 18.648438 24.382812 18.679688 24.449219 18.746094 C 24.511719 18.8125 24.546875 18.890625 24.546875 18.980469 L 24.546875 19.988281 L 25.554688 19.988281 C 25.644531 19.988281 25.722656 20.023438 25.789062 20.085938 C 25.855469 20.152344 25.886719 20.230469 25.886719 20.324219 C 25.886719 20.414062 25.855469 20.496094 25.789062 20.558594 C 25.722656 20.625 25.644531 20.65625 25.554688 20.65625 Z M 25.554688 20.65625 " fill-opacity="1" fill-rule="nonzero"/><g clip-path="url(#9140cc0aa4)"><path fill="#ffffff" d="M 41.636719 33.882812 L 39.871094 33.882812 L 39.871094 20.824219 L 41.515625 20.824219 C 41.652344 20.824219 41.769531 20.777344 41.867188 20.675781 C 41.964844 20.578125 42.015625 20.460938 42.015625 20.324219 L 42.015625 19.226562 C 42.015625 19.074219 41.957031 18.949219 41.84375 18.851562 L 38.027344 15.492188 C 37.933594 15.410156 37.824219 15.367188 37.699219 15.367188 L 27.070312 15.367188 L 31.660156 19.824219 L 31.804688 19.964844 C 31.90625 20.0625 31.957031 20.183594 31.957031 20.324219 L 31.957031 34.886719 L 41.636719 34.886719 C 41.777344 34.886719 41.894531 34.839844 41.996094 34.742188 C 42.09375 34.644531 42.144531 34.523438 42.144531 34.386719 C 42.144531 34.246094 42.09375 34.128906 41.996094 34.03125 C 41.894531 33.929688 41.777344 33.882812 41.636719 33.882812 Z M 37.261719 30.960938 C 37.261719 31.097656 37.210938 31.214844 37.113281 31.3125 C 37.015625 31.410156 36.898438 31.460938 36.761719 31.460938 L 34.199219 31.460938 C 34.058594 31.460938 33.941406 31.410156 33.84375 31.3125 C 33.746094 31.214844 33.699219 31.097656 33.699219 30.957031 L 33.699219 28.398438 C 33.699219 28.257812 33.746094 28.140625 33.84375 28.042969 C 33.941406 27.945312 34.058594 27.898438 34.199219 27.898438 L 36.761719 27.898438 C 36.898438 27.898438 37.015625 27.945312 37.113281 28.042969 C 37.210938 28.140625 37.261719 28.257812 37.261719 28.398438 Z M 37.261719 26.242188 C 37.261719 26.382812 37.210938 26.5 37.113281 26.597656 C 37.015625 26.695312 36.898438 26.746094 36.761719 26.746094 L 34.199219 26.746094 C 34.058594 26.746094 33.941406 26.695312 33.84375 26.597656 C 33.746094 26.5 33.699219 26.382812 33.699219 26.242188 L 33.699219 23.683594 C 33.699219 23.542969 33.746094 23.425781 33.84375 23.328125 C 33.941406 23.230469 34.058594 23.183594 34.199219 23.183594 L 36.761719 23.183594 C 36.898438 23.183594 37.015625 23.230469 37.113281 23.328125 C 37.210938 23.425781 37.261719 23.542969 37.261719 23.683594 Z M 37.261719 26.242188 " fill-opacity="1" fill-rule="nonzero"/></g><g clip-path="url(#309dea5289)"><path fill="#ffffff" d="M 21.160156 15.367188 L 10.726562 15.367188 C 10.597656 15.367188 10.488281 15.410156 10.394531 15.492188 L 6.578125 18.851562 C 6.464844 18.949219 6.40625 19.074219 6.40625 19.226562 L 6.40625 20.324219 C 6.40625 20.460938 6.457031 20.578125 6.554688 20.675781 C 6.652344 20.777344 6.769531 20.824219 6.910156 20.824219 L 8.550781 20.824219 L 8.550781 33.882812 L 6.785156 33.882812 C 6.648438 33.882812 6.527344 33.929688 6.429688 34.03125 C 6.328125 34.128906 6.28125 34.246094 6.28125 34.386719 C 6.28125 34.523438 6.328125 34.644531 6.429688 34.742188 C 6.527344 34.839844 6.648438 34.886719 6.785156 34.886719 L 16.464844 34.886719 L 16.464844 20.324219 C 16.464844 20.1875 16.515625 20.070312 16.609375 19.972656 L 16.757812 19.824219 Z M 14.726562 30.957031 C 14.726562 31.097656 14.675781 31.214844 14.578125 31.3125 C 14.480469 31.410156 14.363281 31.460938 14.226562 31.460938 L 11.664062 31.460938 C 11.523438 31.460938 11.40625 31.410156 11.308594 31.3125 C 11.210938 31.214844 11.164062 31.097656 11.164062 30.957031 L 11.164062 28.398438 C 11.164062 28.257812 11.210938 28.140625 11.308594 28.042969 C 11.40625 27.945312 11.523438 27.898438 11.664062 27.898438 L 14.226562 27.898438 C 14.363281 27.898438 14.480469 27.945312 14.578125 28.042969 C 14.675781 28.140625 14.726562 28.257812 14.726562 28.398438 Z M 14.726562 26.242188 C 14.726562 26.382812 14.675781 26.5 14.578125 26.597656 C 14.480469 26.695312 14.363281 26.746094 14.226562 26.746094 L 11.664062 26.746094 C 11.523438 26.746094 11.40625 26.695312 11.308594 26.597656 C 11.210938 26.5 11.164062 26.382812 11.164062 26.242188 L 11.164062 23.683594 C 11.164062 23.542969 11.210938 23.425781 11.308594 23.328125 C 11.40625 23.230469 11.523438 23.183594 11.664062 23.183594 L 14.226562 23.183594 C 14.363281 23.183594 14.480469 23.230469 14.578125 23.328125 C 14.675781 23.425781 14.726562 23.542969 14.726562 23.683594 Z M 14.726562 26.242188 " fill-opacity="1" fill-rule="nonzero"/></g></svg>