<svg xmlns="http://www.w3.org/2000/svg" xmlns:xlink="http://www.w3.org/1999/xlink" width="65" zoomAndPan="magnify" viewBox="0 0 48.75 48.749998" height="65" preserveAspectRatio="xMidYMid meet" version="1.0"><defs><clipPath id="1ef739c548"><path d="M 1.230469 1.570312 L 47.195312 1.570312 L 47.195312 47.535156 L 1.230469 47.535156 Z M 1.230469 1.570312 " clip-rule="nonzero"/></clipPath><clipPath id="520d7b57fd"><path d="M 24.214844 1.570312 C 11.519531 1.570312 1.230469 11.859375 1.230469 24.554688 C 1.230469 37.246094 11.519531 47.535156 24.214844 47.535156 C 36.90625 47.535156 47.195312 37.246094 47.195312 24.554688 C 47.195312 11.859375 36.90625 1.570312 24.214844 1.570312 Z M 24.214844 1.570312 " clip-rule="nonzero"/></clipPath><clipPath id="c90de0c919"><path d="M 7.011719 5.75 L 41.335938 5.75 L 41.335938 37.835938 L 7.011719 37.835938 Z M 7.011719 5.75 " clip-rule="nonzero"/></clipPath></defs><g clip-path="url(#1ef739c548)"><g clip-path="url(#520d7b57fd)"><path fill="#000000" d="M 1.230469 1.570312 L 47.195312 1.570312 L 47.195312 47.535156 L 1.230469 47.535156 Z M 1.230469 1.570312 " fill-opacity="1" fill-rule="nonzero"/></g></g><g clip-path="url(#c90de0c919)"><path fill="#ffffff" d="M 40.917969 20.195312 L 37.027344 20.195312 C 37.285156 20.195312 37.507812 20.019531 37.566406 19.769531 C 37.628906 19.523438 37.511719 19.265625 37.285156 19.144531 L 29.464844 15.066406 C 29.683594 14.761719 29.804688 14.433594 29.804688 14.082031 L 29.804688 11.480469 L 30.917969 11.066406 L 30.917969 12.015625 C 30.585938 12.207031 30.359375 12.5625 30.359375 12.972656 C 30.359375 13.382812 30.585938 13.734375 30.917969 13.929688 L 30.917969 15.195312 L 32.027344 15.195312 L 32.027344 13.929688 C 32.359375 13.734375 32.582031 13.382812 32.582031 12.972656 C 32.582031 12.5625 32.359375 12.207031 32.027344 12.015625 L 32.027344 10.648438 L 33.335938 10.15625 C 33.550781 10.078125 33.695312 9.871094 33.695312 9.636719 C 33.695312 9.40625 33.550781 9.199219 33.335938 9.117188 L 24.445312 5.785156 C 24.320312 5.738281 24.179688 5.738281 24.054688 5.785156 L 15.164062 9.117188 C 14.949219 9.199219 14.804688 9.40625 14.804688 9.636719 C 14.804688 9.871094 14.949219 10.078125 15.164062 10.160156 L 18.695312 11.480469 L 18.695312 14.082031 C 18.695312 14.433594 18.816406 14.761719 19.03125 15.066406 L 11.214844 19.144531 C 10.988281 19.265625 10.871094 19.523438 10.929688 19.769531 C 10.992188 20.019531 11.214844 20.195312 11.46875 20.195312 L 7.582031 20.195312 C 7.273438 20.195312 7.027344 20.445312 7.027344 20.75 L 7.027344 22.972656 C 7.027344 23.277344 7.273438 23.527344 7.582031 23.527344 L 8.691406 23.527344 L 8.691406 34.640625 C 8.386719 34.640625 8.136719 34.890625 8.136719 35.195312 L 8.136719 37.417969 C 8.136719 37.726562 8.386719 37.972656 8.691406 37.972656 L 39.804688 37.972656 C 40.113281 37.972656 40.363281 37.726562 40.363281 37.417969 L 40.363281 35.195312 C 40.363281 34.890625 40.113281 34.640625 39.804688 34.640625 L 39.804688 23.527344 L 40.917969 23.527344 C 41.222656 23.527344 41.472656 23.277344 41.472656 22.972656 L 41.472656 20.75 C 41.472656 20.445312 41.222656 20.195312 40.917969 20.195312 Z M 33.695312 34.640625 L 33.695312 22.417969 L 34.804688 22.417969 L 34.804688 34.640625 Z M 23.136719 31.308594 L 25.359375 31.308594 L 25.359375 34.640625 L 23.136719 34.640625 Z M 23.136719 30.195312 C 23.136719 29.582031 23.636719 29.085938 24.25 29.085938 C 24.863281 29.085938 25.359375 29.582031 25.359375 30.195312 Z M 24.25 27.972656 C 23.023438 27.972656 22.027344 28.96875 22.027344 30.195312 L 22.027344 34.640625 L 20.914062 34.640625 L 20.914062 22.417969 L 27.582031 22.417969 L 27.582031 34.640625 L 26.472656 34.640625 L 26.472656 30.195312 C 26.472656 28.96875 25.476562 27.972656 24.25 27.972656 Z M 24.25 16.859375 C 26.039062 16.859375 27.582031 16.480469 28.585938 15.859375 L 34.761719 19.082031 L 13.738281 19.082031 L 19.914062 15.859375 C 20.917969 16.480469 22.457031 16.859375 24.25 16.859375 Z M 13.136719 21.304688 L 13.136719 20.195312 L 35.363281 20.195312 L 35.363281 21.304688 Z M 13.691406 22.417969 L 14.804688 22.417969 L 14.804688 34.640625 L 13.691406 34.640625 Z M 15.914062 22.417969 L 17.582031 22.417969 L 17.582031 34.640625 L 15.914062 34.640625 Z M 18.695312 22.417969 L 19.804688 22.417969 L 19.804688 34.640625 L 18.695312 34.640625 Z M 28.695312 22.417969 L 29.804688 22.417969 L 29.804688 34.640625 L 28.695312 34.640625 Z M 30.917969 22.417969 L 32.582031 22.417969 L 32.582031 34.640625 L 30.917969 34.640625 Z M 24.25 6.898438 L 31.558594 9.636719 L 24.25 12.378906 L 16.941406 9.636719 Z M 24.054688 13.492188 C 24.117188 13.515625 24.183594 13.527344 24.25 13.527344 C 24.316406 13.527344 24.382812 13.515625 24.445312 13.492188 L 28.695312 11.898438 L 28.695312 14.082031 C 28.695312 14.761719 26.960938 15.75 24.25 15.75 C 21.535156 15.75 19.804688 14.761719 19.804688 14.082031 L 19.804688 11.898438 Z M 8.136719 21.304688 L 12.027344 21.304688 L 12.027344 21.859375 C 12.027344 22.167969 12.273438 22.414062 12.582031 22.417969 L 8.136719 22.417969 Z M 9.804688 23.527344 L 12.582031 23.527344 L 12.582031 34.640625 L 9.804688 34.640625 Z M 39.25 36.863281 L 9.246094 36.863281 L 9.246094 35.75 L 39.25 35.75 Z M 38.695312 34.640625 L 35.917969 34.640625 L 35.917969 23.527344 L 38.695312 23.527344 Z M 40.363281 22.417969 L 35.917969 22.417969 C 36.222656 22.414062 36.472656 22.167969 36.472656 21.859375 L 36.472656 21.304688 L 40.363281 21.304688 Z M 40.363281 22.417969 " fill-opacity="1" fill-rule="nonzero"/></g></svg>