<svg xmlns="http://www.w3.org/2000/svg" xmlns:xlink="http://www.w3.org/1999/xlink" width="65" zoomAndPan="magnify" viewBox="0 0 48.75 48.749998" height="65" preserveAspectRatio="xMidYMid meet" version="1.0"><defs><clipPath id="ce0f80f37b"><path d="M 0.851562 12.082031 L 47.859375 12.082031 L 47.859375 36.707031 L 0.851562 36.707031 Z M 0.851562 12.082031 " clip-rule="nonzero"/></clipPath><clipPath id="4a961d57e5"><path d="M 0.851562 24.398438 C 0.851562 31.183594 11.375 36.683594 24.355469 36.683594 C 37.335938 36.683594 47.859375 31.183594 47.859375 24.398438 C 47.859375 17.613281 37.335938 12.113281 24.355469 12.113281 C 11.375 12.113281 0.851562 17.613281 0.851562 24.398438 " clip-rule="nonzero"/></clipPath><clipPath id="797e0daa51"><path d="M 0.851562 24.398438 C 0.851562 31.183594 11.375 36.683594 24.355469 36.683594 C 37.335938 36.683594 47.859375 31.183594 47.859375 24.398438 C 47.859375 17.613281 37.335938 12.113281 24.355469 12.113281 C 11.375 12.113281 0.851562 17.613281 0.851562 24.398438 " clip-rule="nonzero"/></clipPath><radialGradient gradientTransform="matrix(1.003159, 0, 0, 0.996841, 14.962582, 16.431497)" gradientUnits="userSpaceOnUse" r="30.766862" cx="0" id="400c503d2a" cy="0" fx="0" fy="0"><stop stop-opacity="1" stop-color="rgb(68.199158%, 69.799805%, 83.499146%)" offset="0"/><stop stop-opacity="1" stop-color="rgb(68.199158%, 69.799805%, 83.499146%)" offset="0.25"/><stop stop-opacity="1" stop-color="rgb(68.164062%, 69.764709%, 83.473206%)" offset="0.296875"/><stop stop-opacity="1" stop-color="rgb(67.956543%, 69.555664%, 83.317566%)" offset="0.300781"/><stop stop-opacity="1" stop-color="rgb(67.608643%, 69.20929%, 83.059692%)" offset="0.304688"/><stop stop-opacity="1" stop-color="rgb(67.260742%, 68.861389%, 82.800293%)" offset="0.308594"/><stop stop-opacity="1" stop-color="rgb(66.914368%, 68.513489%, 82.542419%)" offset="0.3125"/><stop stop-opacity="1" stop-color="rgb(66.566467%, 68.167114%, 82.28302%)" offset="0.316406"/><stop stop-opacity="1" stop-color="rgb(66.220093%, 67.819214%, 82.025146%)" offset="0.320312"/><stop stop-opacity="1" stop-color="rgb(65.872192%, 67.472839%, 81.765747%)" offset="0.324219"/><stop stop-opacity="1" stop-color="rgb(65.525818%, 67.124939%, 81.506348%)" offset="0.328125"/><stop stop-opacity="1" stop-color="rgb(65.177917%, 66.778564%, 81.248474%)" offset="0.332031"/><stop stop-opacity="1" stop-color="rgb(64.831543%, 66.430664%, 80.989075%)" offset="0.335938"/><stop stop-opacity="1" stop-color="rgb(64.483643%, 66.08429%, 80.731201%)" offset="0.339844"/><stop stop-opacity="1" stop-color="rgb(64.135742%, 65.736389%, 80.471802%)" offset="0.34375"/><stop stop-opacity="1" stop-color="rgb(63.789368%, 65.388489%, 80.213928%)" offset="0.347656"/><stop stop-opacity="1" stop-color="rgb(63.441467%, 65.042114%, 79.954529%)" offset="0.351562"/><stop stop-opacity="1" stop-color="rgb(63.095093%, 64.694214%, 79.696655%)" offset="0.355469"/><stop stop-opacity="1" stop-color="rgb(62.747192%, 64.347839%, 79.437256%)" offset="0.359375"/><stop stop-opacity="1" stop-color="rgb(62.400818%, 63.999939%, 79.179382%)" offset="0.363281"/><stop stop-opacity="1" stop-color="rgb(62.052917%, 63.653564%, 78.919983%)" offset="0.367188"/><stop stop-opacity="1" stop-color="rgb(61.706543%, 63.305664%, 78.662109%)" offset="0.371094"/><stop stop-opacity="1" stop-color="rgb(61.358643%, 62.95929%, 78.40271%)" offset="0.375"/><stop stop-opacity="1" stop-color="rgb(61.010742%, 62.611389%, 78.144836%)" offset="0.378906"/><stop stop-opacity="1" stop-color="rgb(60.664368%, 62.263489%, 77.885437%)" offset="0.382812"/><stop stop-opacity="1" stop-color="rgb(60.316467%, 61.917114%, 77.627563%)" offset="0.386719"/><stop stop-opacity="1" stop-color="rgb(59.970093%, 61.569214%, 77.368164%)" offset="0.390625"/><stop stop-opacity="1" stop-color="rgb(59.622192%, 61.222839%, 77.108765%)" offset="0.394531"/><stop stop-opacity="1" stop-color="rgb(59.275818%, 60.874939%, 76.850891%)" offset="0.398438"/><stop stop-opacity="1" stop-color="rgb(58.927917%, 60.528564%, 76.591492%)" offset="0.402344"/><stop stop-opacity="1" stop-color="rgb(58.581543%, 60.180664%, 76.333618%)" offset="0.40625"/><stop stop-opacity="1" stop-color="rgb(58.233643%, 59.83429%, 76.074219%)" offset="0.410156"/><stop stop-opacity="1" stop-color="rgb(57.885742%, 59.486389%, 75.816345%)" offset="0.414062"/><stop stop-opacity="1" stop-color="rgb(57.539368%, 59.138489%, 75.556946%)" offset="0.417969"/><stop stop-opacity="1" stop-color="rgb(57.191467%, 58.792114%, 75.299072%)" offset="0.421875"/><stop stop-opacity="1" stop-color="rgb(56.845093%, 58.444214%, 75.039673%)" offset="0.425781"/><stop stop-opacity="1" stop-color="rgb(56.497192%, 58.097839%, 74.781799%)" offset="0.429688"/><stop stop-opacity="1" stop-color="rgb(56.150818%, 57.749939%, 74.5224%)" offset="0.433594"/><stop stop-opacity="1" stop-color="rgb(55.802917%, 57.403564%, 74.264526%)" offset="0.4375"/><stop stop-opacity="1" stop-color="rgb(55.456543%, 57.055664%, 74.005127%)" offset="0.441406"/><stop stop-opacity="1" stop-color="rgb(55.108643%, 56.70929%, 73.747253%)" offset="0.445312"/><stop stop-opacity="1" stop-color="rgb(54.760742%, 56.361389%, 73.487854%)" offset="0.449219"/><stop stop-opacity="1" stop-color="rgb(54.414368%, 56.013489%, 73.22998%)" offset="0.453125"/><stop stop-opacity="1" stop-color="rgb(54.066467%, 55.667114%, 72.970581%)" offset="0.457031"/><stop stop-opacity="1" stop-color="rgb(53.720093%, 55.319214%, 72.711182%)" offset="0.460938"/><stop stop-opacity="1" stop-color="rgb(53.372192%, 54.972839%, 72.453308%)" offset="0.464844"/><stop stop-opacity="1" stop-color="rgb(53.025818%, 54.624939%, 72.193909%)" offset="0.46875"/><stop stop-opacity="1" stop-color="rgb(52.677917%, 54.278564%, 71.936035%)" offset="0.472656"/><stop stop-opacity="1" stop-color="rgb(52.331543%, 53.930664%, 71.676636%)" offset="0.476562"/><stop stop-opacity="1" stop-color="rgb(51.983643%, 53.58429%, 71.418762%)" offset="0.480469"/><stop stop-opacity="1" stop-color="rgb(51.635742%, 53.236389%, 71.159363%)" offset="0.484375"/><stop stop-opacity="1" stop-color="rgb(51.289368%, 52.888489%, 70.901489%)" offset="0.488281"/><stop stop-opacity="1" stop-color="rgb(50.941467%, 52.542114%, 70.64209%)" offset="0.492188"/><stop stop-opacity="1" stop-color="rgb(50.595093%, 52.194214%, 70.384216%)" offset="0.496094"/><stop stop-opacity="1" stop-color="rgb(50.247192%, 51.847839%, 70.124817%)" offset="0.5"/><stop stop-opacity="1" stop-color="rgb(49.900818%, 51.499939%, 69.866943%)" offset="0.503906"/><stop stop-opacity="1" stop-color="rgb(49.552917%, 51.153564%, 69.607544%)" offset="0.507812"/><stop stop-opacity="1" stop-color="rgb(49.206543%, 50.805664%, 69.34967%)" offset="0.511719"/><stop stop-opacity="1" stop-color="rgb(48.858643%, 50.45929%, 69.090271%)" offset="0.515625"/><stop stop-opacity="1" stop-color="rgb(48.510742%, 50.111389%, 68.832397%)" offset="0.519531"/><stop stop-opacity="1" stop-color="rgb(48.164368%, 49.763489%, 68.572998%)" offset="0.523438"/><stop stop-opacity="1" stop-color="rgb(47.816467%, 49.417114%, 68.313599%)" offset="0.527344"/><stop stop-opacity="1" stop-color="rgb(47.470093%, 49.069214%, 68.055725%)" offset="0.53125"/><stop stop-opacity="1" stop-color="rgb(47.122192%, 48.722839%, 67.796326%)" offset="0.535156"/><stop stop-opacity="1" stop-color="rgb(46.775818%, 48.374939%, 67.538452%)" offset="0.539062"/><stop stop-opacity="1" stop-color="rgb(46.427917%, 48.028564%, 67.279053%)" offset="0.542969"/><stop stop-opacity="1" stop-color="rgb(46.081543%, 47.680664%, 67.021179%)" offset="0.546875"/><stop stop-opacity="1" stop-color="rgb(45.733643%, 47.33429%, 66.76178%)" offset="0.550781"/><stop stop-opacity="1" stop-color="rgb(45.385742%, 46.986389%, 66.503906%)" offset="0.554688"/><stop stop-opacity="1" stop-color="rgb(45.039368%, 46.638489%, 66.244507%)" offset="0.558594"/><stop stop-opacity="1" stop-color="rgb(44.691467%, 46.292114%, 65.986633%)" offset="0.5625"/><stop stop-opacity="1" stop-color="rgb(44.345093%, 45.944214%, 65.727234%)" offset="0.566406"/><stop stop-opacity="1" stop-color="rgb(43.997192%, 45.597839%, 65.46936%)" offset="0.570312"/><stop stop-opacity="1" stop-color="rgb(43.650818%, 45.249939%, 65.209961%)" offset="0.574219"/><stop stop-opacity="1" stop-color="rgb(43.302917%, 44.903564%, 64.952087%)" offset="0.578125"/><stop stop-opacity="1" stop-color="rgb(42.956543%, 44.555664%, 64.692688%)" offset="0.582031"/><stop stop-opacity="1" stop-color="rgb(42.608643%, 44.20929%, 64.434814%)" offset="0.585938"/><stop stop-opacity="1" stop-color="rgb(42.260742%, 43.861389%, 64.175415%)" offset="0.589844"/><stop stop-opacity="1" stop-color="rgb(41.914368%, 43.513489%, 63.916016%)" offset="0.59375"/><stop stop-opacity="1" stop-color="rgb(41.566467%, 43.167114%, 63.658142%)" offset="0.597656"/><stop stop-opacity="1" stop-color="rgb(41.220093%, 42.819214%, 63.398743%)" offset="0.601562"/><stop stop-opacity="1" stop-color="rgb(40.872192%, 42.472839%, 63.140869%)" offset="0.605469"/><stop stop-opacity="1" stop-color="rgb(40.525818%, 42.124939%, 62.88147%)" offset="0.609375"/><stop stop-opacity="1" stop-color="rgb(40.177917%, 41.778564%, 62.623596%)" offset="0.613281"/><stop stop-opacity="1" stop-color="rgb(39.831543%, 41.430664%, 62.364197%)" offset="0.617188"/><stop stop-opacity="1" stop-color="rgb(39.483643%, 41.08429%, 62.106323%)" offset="0.621094"/><stop stop-opacity="1" stop-color="rgb(39.135742%, 40.736389%, 61.846924%)" offset="0.625"/><stop stop-opacity="1" stop-color="rgb(38.789368%, 40.388489%, 61.58905%)" offset="0.628906"/><stop stop-opacity="1" stop-color="rgb(38.441467%, 40.042114%, 61.329651%)" offset="0.632812"/><stop stop-opacity="1" stop-color="rgb(38.095093%, 39.694214%, 61.071777%)" offset="0.636719"/><stop stop-opacity="1" stop-color="rgb(37.747192%, 39.347839%, 60.812378%)" offset="0.640625"/><stop stop-opacity="1" stop-color="rgb(37.400818%, 38.999939%, 60.554504%)" offset="0.644531"/><stop stop-opacity="1" stop-color="rgb(37.052917%, 38.653564%, 60.295105%)" offset="0.648438"/><stop stop-opacity="1" stop-color="rgb(36.706543%, 38.305664%, 60.037231%)" offset="0.652344"/><stop stop-opacity="1" stop-color="rgb(36.358643%, 37.95929%, 59.777832%)" offset="0.65625"/><stop stop-opacity="1" stop-color="rgb(36.010742%, 37.611389%, 59.518433%)" offset="0.660156"/><stop stop-opacity="1" stop-color="rgb(35.664368%, 37.263489%, 59.260559%)" offset="0.664062"/><stop stop-opacity="1" stop-color="rgb(35.316467%, 36.917114%, 59.00116%)" offset="0.667969"/><stop stop-opacity="1" stop-color="rgb(34.970093%, 36.569214%, 58.743286%)" offset="0.671875"/><stop stop-opacity="1" stop-color="rgb(34.622192%, 36.222839%, 58.483887%)" offset="0.675781"/><stop stop-opacity="1" stop-color="rgb(34.275818%, 35.874939%, 58.226013%)" offset="0.679688"/><stop stop-opacity="1" stop-color="rgb(33.927917%, 35.528564%, 57.966614%)" offset="0.683594"/><stop stop-opacity="1" stop-color="rgb(33.581543%, 35.180664%, 57.70874%)" offset="0.6875"/><stop stop-opacity="1" stop-color="rgb(33.233643%, 34.83429%, 57.449341%)" offset="0.691406"/><stop stop-opacity="1" stop-color="rgb(32.885742%, 34.486389%, 57.191467%)" offset="0.695312"/><stop stop-opacity="1" stop-color="rgb(32.539368%, 34.138489%, 56.932068%)" offset="0.699219"/><stop stop-opacity="1" stop-color="rgb(32.191467%, 33.792114%, 56.674194%)" offset="0.703125"/><stop stop-opacity="1" stop-color="rgb(31.845093%, 33.444214%, 56.414795%)" offset="0.707031"/><stop stop-opacity="1" stop-color="rgb(31.497192%, 33.097839%, 56.156921%)" offset="0.710938"/><stop stop-opacity="1" stop-color="rgb(31.150818%, 32.749939%, 55.897522%)" offset="0.714844"/><stop stop-opacity="1" stop-color="rgb(30.802917%, 32.403564%, 55.639648%)" offset="0.71875"/><stop stop-opacity="1" stop-color="rgb(30.456543%, 32.055664%, 55.380249%)" offset="0.722656"/><stop stop-opacity="1" stop-color="rgb(30.108643%, 31.70929%, 55.122375%)" offset="0.726562"/><stop stop-opacity="1" stop-color="rgb(29.760742%, 31.361389%, 54.862976%)" offset="0.730469"/><stop stop-opacity="1" stop-color="rgb(29.414368%, 31.013489%, 54.603577%)" offset="0.734375"/><stop stop-opacity="1" stop-color="rgb(29.066467%, 30.667114%, 54.345703%)" offset="0.738281"/><stop stop-opacity="1" stop-color="rgb(28.720093%, 30.319214%, 54.086304%)" offset="0.742188"/><stop stop-opacity="1" stop-color="rgb(28.372192%, 29.972839%, 53.82843%)" offset="0.746094"/><stop stop-opacity="1" stop-color="rgb(28.199768%, 29.798889%, 53.69873%)" offset="1"/></radialGradient></defs><g clip-path="url(#ce0f80f37b)"><g clip-path="url(#4a961d57e5)"><g clip-path="url(#797e0daa51)"><path fill="url(#400c503d2a)" d="M 0.851562 12.113281 L 0.851562 36.683594 L 47.859375 36.683594 L 47.859375 12.113281 Z M 0.851562 12.113281 " fill-rule="nonzero"/></g></g></g><path fill="#777bb3" d="M 24.355469 35.773438 C 36.828125 35.773438 46.941406 30.679688 46.941406 24.398438 C 46.941406 18.117188 36.828125 13.023438 24.355469 13.023438 C 11.882812 13.023438 1.769531 18.117188 1.769531 24.398438 C 1.769531 30.679688 11.882812 35.773438 24.355469 35.773438 " fill-opacity="1" fill-rule="nonzero"/><path fill="#000000" d="M 13.621094 25.808594 C 14.644531 25.808594 15.410156 25.621094 15.894531 25.25 C 16.375 24.882812 16.707031 24.246094 16.878906 23.363281 C 17.042969 22.535156 16.980469 21.953125 16.695312 21.644531 C 16.40625 21.324219 15.78125 21.164062 14.835938 21.164062 L 13.195312 21.164062 L 12.289062 25.808594 Z M 8.257812 31.53125 C 8.183594 31.53125 8.109375 31.496094 8.0625 31.441406 C 8.011719 31.378906 7.992188 31.308594 8.007812 31.230469 L 10.417969 18.917969 C 10.445312 18.78125 10.527344 18.710938 10.667969 18.710938 L 15.859375 18.710938 C 17.488281 18.710938 18.703125 19.152344 19.464844 20.019531 C 20.234375 20.894531 20.46875 22.113281 20.171875 23.648438 C 20.046875 24.269531 19.839844 24.851562 19.546875 25.371094 C 19.253906 25.890625 18.867188 26.371094 18.398438 26.800781 C 17.835938 27.324219 17.199219 27.703125 16.507812 27.925781 C 15.828125 28.148438 14.953125 28.257812 13.910156 28.257812 L 11.808594 28.257812 L 11.210938 31.328125 C 11.183594 31.464844 11.097656 31.53125 10.957031 31.53125 Z M 8.257812 31.53125 " fill-opacity="1" fill-rule="nonzero"/><path fill="#ffffff" d="M 13.40625 21.414062 L 14.835938 21.414062 C 15.976562 21.414062 16.371094 21.664062 16.507812 21.8125 C 16.730469 22.058594 16.773438 22.578125 16.628906 23.3125 C 16.46875 24.136719 16.167969 24.722656 15.742188 25.050781 C 15.300781 25.382812 14.589844 25.554688 13.621094 25.554688 L 12.597656 25.554688 Z M 15.859375 18.457031 L 10.667969 18.457031 C 10.546875 18.457031 10.4375 18.496094 10.34375 18.574219 C 10.25 18.652344 10.191406 18.75 10.167969 18.867188 L 7.757812 31.183594 C 7.730469 31.339844 7.765625 31.476562 7.867188 31.601562 C 7.96875 31.722656 8.097656 31.785156 8.257812 31.785156 L 10.957031 31.785156 C 11.082031 31.785156 11.1875 31.746094 11.285156 31.671875 C 11.378906 31.59375 11.4375 31.496094 11.460938 31.375 L 12.019531 28.511719 L 13.910156 28.511719 C 14.980469 28.511719 15.882812 28.394531 16.585938 28.167969 C 17.3125 27.933594 17.980469 27.535156 18.574219 26.988281 C 19.0625 26.539062 19.464844 26.039062 19.769531 25.496094 C 20.074219 24.953125 20.292969 24.347656 20.421875 23.695312 C 20.738281 22.082031 20.480469 20.789062 19.660156 19.855469 C 18.84375 18.929688 17.566406 18.460938 15.859375 18.460938 M 11.980469 26.0625 L 13.621094 26.0625 C 14.710938 26.0625 15.519531 25.859375 16.050781 25.453125 C 16.585938 25.042969 16.945312 24.363281 17.128906 23.410156 C 17.308594 22.496094 17.226562 21.851562 16.886719 21.472656 C 16.546875 21.097656 15.863281 20.910156 14.835938 20.910156 L 12.988281 20.910156 L 11.980469 26.0625 M 15.859375 18.964844 C 17.417969 18.964844 18.558594 19.375 19.273438 20.1875 C 19.992188 21.003906 20.207031 22.140625 19.921875 23.597656 C 19.804688 24.199219 19.605469 24.75 19.324219 25.246094 C 19.042969 25.746094 18.679688 26.203125 18.226562 26.613281 C 17.6875 27.117188 17.089844 27.472656 16.429688 27.6875 C 15.769531 27.898438 14.929688 28.003906 13.910156 28.003906 L 11.597656 28.003906 L 10.960938 31.277344 L 8.261719 31.277344 L 10.667969 18.96875 L 15.859375 18.96875 " fill-opacity="1" fill-rule="nonzero"/><path fill="#000000" d="M 26.359375 28.257812 C 26.28125 28.257812 26.210938 28.222656 26.164062 28.164062 C 26.113281 28.105469 26.09375 28.03125 26.109375 27.957031 L 27.175781 22.507812 C 27.277344 21.992188 27.25 21.617188 27.105469 21.460938 C 27.015625 21.367188 26.746094 21.203125 25.945312 21.203125 L 24.015625 21.203125 L 22.679688 28.054688 C 22.652344 28.191406 22.566406 28.257812 22.425781 28.257812 L 19.75 28.257812 C 19.667969 28.257812 19.605469 28.226562 19.554688 28.164062 C 19.5 28.105469 19.484375 28.035156 19.5 27.957031 L 21.90625 15.644531 C 21.933594 15.507812 22.019531 15.4375 22.15625 15.4375 L 24.835938 15.4375 C 24.914062 15.4375 24.980469 15.46875 25.03125 15.53125 C 25.082031 15.59375 25.101562 15.664062 25.085938 15.742188 L 24.503906 18.710938 L 26.582031 18.710938 C 28.164062 18.710938 29.234375 18.988281 29.859375 19.558594 C 30.496094 20.140625 30.695312 21.070312 30.449219 22.324219 L 29.328125 28.054688 C 29.304688 28.191406 29.21875 28.257812 29.078125 28.257812 Z M 26.359375 28.257812 " fill-opacity="1" fill-rule="nonzero"/><path fill="#ffffff" d="M 24.835938 15.183594 L 22.15625 15.183594 C 22.035156 15.183594 21.925781 15.222656 21.832031 15.300781 C 21.738281 15.378906 21.679688 15.476562 21.65625 15.59375 L 19.25 27.90625 C 19.21875 28.0625 19.253906 28.203125 19.355469 28.328125 C 19.457031 28.449219 19.589844 28.511719 19.75 28.511719 L 22.425781 28.511719 C 22.550781 28.511719 22.65625 28.472656 22.753906 28.394531 C 22.847656 28.320312 22.90625 28.21875 22.929688 28.101562 L 24.226562 21.457031 L 25.949219 21.457031 C 26.742188 21.457031 26.910156 21.625 26.917969 21.632812 C 26.964844 21.683594 27.027344 21.925781 26.925781 22.460938 L 25.859375 27.90625 C 25.828125 28.0625 25.863281 28.203125 25.964844 28.328125 C 26.066406 28.449219 26.199219 28.511719 26.359375 28.511719 L 29.078125 28.511719 C 29.203125 28.511719 29.308594 28.472656 29.402344 28.394531 C 29.5 28.320312 29.558594 28.21875 29.582031 28.101562 L 30.699219 22.371094 C 30.964844 21.027344 30.738281 20.019531 30.03125 19.371094 C 29.359375 18.757812 28.230469 18.457031 26.582031 18.457031 L 24.816406 18.457031 L 25.335938 15.789062 C 25.367188 15.632812 25.332031 15.492188 25.230469 15.371094 C 25.128906 15.246094 24.996094 15.183594 24.835938 15.183594 M 24.835938 15.691406 L 24.195312 18.964844 L 26.582031 18.964844 C 28.082031 18.964844 29.117188 19.226562 29.6875 19.746094 C 30.257812 20.265625 30.429688 21.109375 30.199219 22.273438 L 29.082031 28.003906 L 26.359375 28.003906 L 27.425781 22.558594 C 27.546875 21.9375 27.5 21.515625 27.292969 21.289062 C 27.082031 21.0625 26.632812 20.949219 25.949219 20.949219 L 23.808594 20.949219 L 22.425781 28.003906 L 19.75 28.003906 L 22.15625 15.691406 L 24.835938 15.691406 " fill-opacity="1" fill-rule="nonzero"/><path fill="#000000" d="M 34.6875 25.808594 C 35.714844 25.808594 36.480469 25.621094 36.964844 25.25 C 37.441406 24.882812 37.773438 24.246094 37.949219 23.363281 C 38.109375 22.535156 38.046875 21.953125 37.765625 21.644531 C 37.472656 21.324219 36.847656 21.164062 35.902344 21.164062 L 34.265625 21.164062 L 33.355469 25.808594 Z M 29.328125 31.53125 C 29.25 31.53125 29.179688 31.496094 29.128906 31.4375 C 29.078125 31.378906 29.0625 31.308594 29.078125 31.230469 L 31.484375 18.917969 C 31.511719 18.78125 31.59375 18.710938 31.734375 18.710938 L 36.925781 18.710938 C 38.554688 18.710938 39.769531 19.152344 40.535156 20.019531 C 41.300781 20.894531 41.539062 22.113281 41.238281 23.644531 C 41.117188 24.269531 40.90625 24.851562 40.613281 25.371094 C 40.320312 25.890625 39.933594 26.371094 39.464844 26.800781 C 38.902344 27.324219 38.265625 27.703125 37.574219 27.925781 C 36.894531 28.144531 36.019531 28.257812 34.976562 28.257812 L 32.875 28.257812 L 32.273438 31.328125 C 32.25 31.464844 32.164062 31.53125 32.023438 31.53125 L 29.324219 31.53125 Z M 29.328125 31.53125 " fill-opacity="1" fill-rule="nonzero"/><path fill="#ffffff" d="M 34.472656 21.414062 L 35.902344 21.414062 C 37.042969 21.414062 37.441406 21.664062 37.574219 21.8125 C 37.796875 22.058594 37.839844 22.578125 37.695312 23.3125 C 37.535156 24.136719 37.238281 24.722656 36.808594 25.050781 C 36.371094 25.382812 35.65625 25.554688 34.6875 25.554688 L 33.664062 25.554688 Z M 36.925781 18.457031 L 31.734375 18.457031 C 31.613281 18.457031 31.503906 18.496094 31.410156 18.574219 C 31.316406 18.652344 31.257812 18.75 31.234375 18.867188 L 28.824219 31.183594 C 28.796875 31.339844 28.832031 31.476562 28.933594 31.601562 C 29.035156 31.722656 29.167969 31.785156 29.328125 31.785156 L 32.027344 31.785156 C 32.148438 31.785156 32.257812 31.746094 32.351562 31.671875 C 32.445312 31.59375 32.503906 31.496094 32.527344 31.375 L 33.085938 28.511719 L 34.976562 28.511719 C 36.046875 28.511719 36.949219 28.394531 37.652344 28.167969 C 38.378906 27.933594 39.046875 27.535156 39.640625 26.988281 C 40.128906 26.539062 40.53125 26.039062 40.835938 25.496094 C 41.140625 24.953125 41.359375 24.347656 41.488281 23.695312 C 41.804688 22.082031 41.546875 20.789062 40.726562 19.855469 C 39.910156 18.929688 38.632812 18.460938 36.925781 18.460938 M 33.046875 26.0625 L 34.6875 26.0625 C 35.777344 26.0625 36.585938 25.859375 37.117188 25.453125 C 37.652344 25.042969 38.011719 24.363281 38.199219 23.410156 C 38.375 22.496094 38.292969 21.851562 37.953125 21.472656 C 37.613281 21.097656 36.929688 20.910156 35.902344 20.910156 L 34.054688 20.910156 L 33.046875 26.0625 M 36.925781 18.964844 C 38.488281 18.964844 39.625 19.375 40.339844 20.1875 C 41.058594 21.003906 41.273438 22.140625 40.988281 23.597656 C 40.871094 24.199219 40.671875 24.75 40.390625 25.246094 C 40.109375 25.746094 39.746094 26.203125 39.292969 26.613281 C 38.753906 27.117188 38.15625 27.472656 37.496094 27.6875 C 36.835938 27.898438 36 28.003906 34.976562 28.003906 L 32.667969 28.003906 L 32.027344 31.277344 L 29.328125 31.277344 L 31.734375 18.964844 L 36.925781 18.964844 " fill-opacity="1" fill-rule="nonzero"/></svg>