<svg xmlns="http://www.w3.org/2000/svg" xmlns:xlink="http://www.w3.org/1999/xlink" width="65" zoomAndPan="magnify" viewBox="0 0 48.75 48.749998" height="65" preserveAspectRatio="xMidYMid meet" version="1.0"><defs><clipPath id="32ed2fb59e"><path d="M 2 3 L 46.464844 3 L 46.464844 46.828125 L 2 46.828125 Z M 2 3 " clip-rule="nonzero"/></clipPath></defs><g clip-path="url(#32ed2fb59e)"><path fill="#00678c" d="M 42.988281 37 C 40.59375 36.933594 38.730469 37.175781 37.171875 37.832031 C 36.722656 38.011719 36.003906 38.011719 35.945312 38.578125 C 36.183594 38.816406 36.214844 39.203125 36.425781 39.53125 C 36.785156 40.128906 37.414062 40.933594 37.984375 41.347656 L 39.902344 42.71875 C 41.070312 43.433594 42.390625 43.851562 43.527344 44.566406 C 44.1875 44.984375 44.847656 45.519531 45.507812 45.96875 C 45.84375 46.207031 46.046875 46.59375 46.46875 46.742188 L 46.46875 46.652344 C 46.257812 46.386719 46.195312 45.996094 45.988281 45.699219 L 45.085938 44.835938 C 44.21875 43.671875 43.140625 42.660156 41.96875 41.824219 C 41.011719 41.171875 38.914062 40.277344 38.523438 39.175781 L 38.464844 39.109375 C 39.121094 39.042969 39.902344 38.808594 40.53125 38.628906 C 41.550781 38.363281 42.480469 38.421875 43.527344 38.15625 L 44.96875 37.738281 L 44.96875 37.46875 C 44.429688 36.933594 44.039062 36.21875 43.46875 35.710938 C 41.941406 34.402344 40.261719 33.121094 38.523438 32.046875 C 37.59375 31.453125 36.394531 31.0625 35.40625 30.558594 C 35.042969 30.378906 34.445312 30.289062 34.234375 29.992188 C 33.695312 29.335938 33.394531 28.472656 33.003906 27.699219 L 30.546875 22.511719 C 30.007812 21.351562 29.675781 20.191406 29.019531 19.117188 C 25.929688 14.050781 22.574219 10.984375 17.414062 7.972656 C 16.308594 7.347656 14.988281 7.078125 13.585938 6.75 L 11.335938 6.632812 C 10.855469 6.421875 10.378906 5.855469 9.957031 5.589844 C 8.25 4.515625 3.839844 2.191406 2.582031 5.253906 C 1.773438 7.191406 3.78125 9.097656 4.464844 10.082031 C 4.972656 10.765625 5.632812 11.542969 5.992188 12.316406 C 6.195312 12.820312 6.261719 13.359375 6.472656 13.894531 C 6.953125 15.207031 7.402344 16.667969 8.03125 17.886719 C 8.367188 18.515625 8.71875 19.171875 9.140625 19.734375 C 9.378906 20.070312 9.800781 20.214844 9.890625 20.75 C 9.46875 21.34375 9.441406 22.238281 9.199219 22.984375 C 8.121094 26.351562 8.539062 30.523438 10.070312 33 C 10.550781 33.746094 11.683594 35.386719 13.21875 34.757812 C 14.566406 34.222656 14.265625 32.523438 14.65625 31.035156 C 14.746094 30.675781 14.6875 30.4375 14.867188 30.199219 L 14.867188 30.265625 L 16.09375 32.738281 C 17.023438 34.199219 18.644531 35.71875 19.992188 36.734375 C 20.710938 37.269531 21.28125 38.191406 22.179688 38.519531 L 22.179688 38.429688 L 22.121094 38.429688 C 21.941406 38.164062 21.671875 38.042969 21.429688 37.835938 C 20.890625 37.296875 20.292969 36.640625 19.871094 36.046875 C 18.613281 34.378906 17.503906 32.53125 16.515625 30.625 C 16.035156 29.699219 15.613281 28.6875 15.226562 27.765625 C 15.046875 27.40625 15.046875 26.871094 14.746094 26.691406 C 14.296875 27.347656 13.636719 27.914062 13.304688 28.71875 C 12.738281 30 12.675781 31.578125 12.46875 33.214844 C 12.347656 33.246094 12.402344 33.214844 12.347656 33.285156 C 11.386719 33.046875 11.058594 32.0625 10.699219 31.226562 C 9.800781 29.113281 9.648438 25.714844 10.429688 23.273438 C 10.636719 22.648438 11.539062 20.679688 11.179688 20.085938 C 10.996094 19.519531 10.398438 19.191406 10.070312 18.742188 C 9.679688 18.175781 9.261719 17.464844 8.992188 16.835938 C 8.269531 15.167969 7.910156 13.320312 7.132812 11.652344 C 6.769531 10.878906 6.140625 10.074219 5.632812 9.359375 C 5.0625 8.554688 4.433594 7.988281 3.984375 7.035156 C 3.832031 6.699219 3.625 6.171875 3.863281 5.8125 C 3.921875 5.574219 4.042969 5.480469 4.28125 5.425781 C 4.671875 5.089844 5.78125 5.515625 6.171875 5.691406 C 7.28125 6.140625 8.210938 6.558594 9.140625 7.183594 C 9.558594 7.480469 10.007812 8.046875 10.550781 8.195312 L 11.179688 8.195312 C 12.140625 8.402344 13.21875 8.261719 14.117188 8.53125 C 15.703125 9.035156 17.144531 9.78125 18.433594 10.585938 C 22.359375 13.058594 25.597656 16.574219 27.789062 20.777344 C 28.148438 21.460938 28.296875 22.085938 28.628906 22.800781 C 29.257812 24.261719 30.039062 25.753906 30.664062 27.183594 C 31.296875 28.582031 31.894531 30.015625 32.792969 31.175781 C 33.246094 31.800781 35.042969 32.128906 35.851562 32.457031 C 36.453125 32.726562 37.378906 32.964844 37.921875 33.292969 C 38.941406 33.917969 39.960938 34.632812 40.917969 35.316406 C 41.398438 35.675781 42.898438 36.421875 42.988281 37.015625 Z M 12.414062 11.105469 C 12 11.101562 11.589844 11.152344 11.1875 11.257812 L 11.1875 11.324219 L 11.246094 11.324219 C 11.488281 11.800781 11.90625 12.128906 12.207031 12.542969 L 12.894531 13.976562 L 12.957031 13.910156 C 13.375 13.609375 13.585938 13.132812 13.585938 12.417969 C 13.40625 12.210938 13.375 12 13.226562 11.792969 C 13.046875 11.496094 12.65625 11.347656 12.414062 11.109375 Z M 12.414062 11.105469 " fill-opacity="1" fill-rule="evenodd"/></g></svg>